<svg width="187" height="85" viewBox="0 0 187 85" fill="none" xmlns="http://www.w3.org/2000/svg">
<path d="M174.428 81.164L173.569 81.6753L173.569 81.6753L174.428 81.164ZM176.354 83.0174C176.218 83.5527 175.674 83.8765 175.138 83.7406L166.415 81.5259C165.88 81.39 165.556 80.8459 165.692 80.3106C165.828 79.7753 166.372 79.4515 166.907 79.5874L174.661 81.556L176.63 73.802C176.766 73.2667 177.31 72.943 177.845 73.0789C178.38 73.2148 178.704 73.7589 178.568 74.2942L176.354 83.0174ZM175.287 80.6526L176.244 82.26L174.525 83.2827L173.569 81.6753L175.287 80.6526ZM0.479086 37.3075C60.6565 0.584355 139.238 20.0693 175.287 80.6526L173.569 81.6753C138.088 22.0487 60.748 2.8715 1.52091 39.0147L0.479086 37.3075Z" fill="#FCC501"/>
</svg>
