<svg width="625" height="160" viewBox="0 0 625 160" fill="none" xmlns="http://www.w3.org/2000/svg">
<path d="M116.996 76.6249C125.695 79.6694 132.509 84.4537 137.438 90.9776C142.367 97.3566 144.832 105.113 144.832 114.246C144.832 127.584 139.468 137.878 128.74 145.127C118.011 152.375 102.499 156 82.2019 156H0V3.77401H77.8526C97.2795 3.77401 112.067 7.39843 122.216 14.6473C132.364 21.7512 137.438 31.3921 137.438 43.5702C137.438 50.819 135.626 57.343 132.002 63.1421C128.522 68.7962 123.52 73.2905 116.996 76.6249ZM42.6232 34.8716V64.2294H72.1985C86.6962 64.2294 93.9451 59.3002 93.9451 49.4417C93.9451 39.7283 86.6962 34.8716 72.1985 34.8716H42.6232ZM78.7225 124.902C93.8001 124.902 101.339 119.756 101.339 109.462C101.339 99.1688 93.8001 94.0221 78.7225 94.0221H42.6232V124.902H78.7225Z" fill="url(#paint0_linear)"/>
<path d="M167.134 3.77401H210.192V121.858H282.826V156H167.134V3.77401Z" fill="url(#paint1_linear)"/>
<path d="M374.294 159.044C358.201 159.044 343.703 155.637 330.801 148.823C318.043 142.01 307.967 132.586 300.573 120.553C293.324 108.52 289.7 94.9645 289.7 79.8869C289.7 64.8093 293.324 51.254 300.573 39.2209C307.967 27.1878 318.043 17.7643 330.801 10.9504C343.703 4.13645 358.201 0.729492 374.294 0.729492C390.386 0.729492 404.811 4.13645 417.569 10.9504C430.472 17.7643 440.548 27.1878 447.797 39.2209C455.191 51.254 458.888 64.8093 458.888 79.8869C458.888 94.9645 455.191 108.52 447.797 120.553C440.548 132.586 430.472 142.01 417.569 148.823C404.811 155.637 390.386 159.044 374.294 159.044ZM374.294 123.38C381.977 123.38 388.936 121.568 395.17 117.943C401.404 114.319 406.333 109.245 409.958 102.721C413.582 96.0518 415.395 88.4405 415.395 79.8869C415.395 71.3333 413.582 63.7945 409.958 57.2705C406.333 50.6016 401.404 45.4549 395.17 41.8305C388.936 38.206 381.977 36.3938 374.294 36.3938C366.61 36.3938 359.651 38.206 353.417 41.8305C347.183 45.4549 342.254 50.6016 338.629 57.2705C335.005 63.7945 333.193 71.3333 333.193 79.8869C333.193 88.4405 335.005 96.0518 338.629 102.721C342.254 109.245 347.183 114.319 353.417 117.943C359.651 121.568 366.61 123.38 374.294 123.38Z" fill="url(#paint2_linear)"/>
<path d="M583.431 76.6249H621.487V139.69C612.789 145.924 602.785 150.708 591.477 154.043C580.169 157.377 568.861 159.044 557.552 159.044C541.605 159.044 527.252 155.71 514.494 149.041C501.736 142.227 491.733 132.803 484.484 120.77C477.235 108.737 473.611 95.1095 473.611 79.8869C473.611 64.6643 477.235 51.0365 484.484 39.0034C491.733 26.9703 501.809 17.6193 514.712 10.9504C527.615 4.13645 542.185 0.729492 558.422 0.729492C572.63 0.729492 585.388 3.12161 596.696 7.90585C608.004 12.6901 617.428 19.5765 624.967 28.5651L597.566 53.3561C587.273 42.0479 574.95 36.3938 560.597 36.3938C547.549 36.3938 537.038 40.3807 529.064 48.3544C521.091 56.1832 517.104 66.694 517.104 79.8869C517.104 88.2956 518.916 95.8344 522.54 102.503C526.165 109.027 531.239 114.174 537.763 117.943C544.287 121.568 551.753 123.38 560.162 123.38C568.426 123.38 576.182 121.713 583.431 118.378V76.6249Z" fill="url(#paint3_linear)"/>
<defs>
<linearGradient id="paint0_linear" x1="309.277" y1="-22.0002" x2="309.95" y2="147.814" gradientUnits="userSpaceOnUse">
<stop stop-color="white" stop-opacity="0.1"/>
<stop offset="1" stop-color="white" stop-opacity="0"/>
</linearGradient>
<linearGradient id="paint1_linear" x1="309.277" y1="-22.0002" x2="309.95" y2="147.814" gradientUnits="userSpaceOnUse">
<stop stop-color="white" stop-opacity="0.1"/>
<stop offset="1" stop-color="white" stop-opacity="0"/>
</linearGradient>
<linearGradient id="paint2_linear" x1="309.277" y1="-22.0002" x2="309.95" y2="147.814" gradientUnits="userSpaceOnUse">
<stop stop-color="white" stop-opacity="0.1"/>
<stop offset="1" stop-color="white" stop-opacity="0"/>
</linearGradient>
<linearGradient id="paint3_linear" x1="309.277" y1="-22.0002" x2="309.95" y2="147.814" gradientUnits="userSpaceOnUse">
<stop stop-color="white" stop-opacity="0.1"/>
<stop offset="1" stop-color="white" stop-opacity="0"/>
</linearGradient>
</defs>
</svg>
