<svg width="851" height="181" viewBox="0 0 851 181" fill="none" xmlns="http://www.w3.org/2000/svg">
<path d="M96.4378 180.749C128.466 180.749 154.287 169.079 171.17 147.975L139.887 119.671C128.963 132.83 115.555 140.03 98.9206 140.03C70.3683 140.03 50.5058 120.168 50.5058 90.3743C50.5058 60.5806 70.3683 40.7181 98.9206 40.7181C115.555 40.7181 128.963 47.9182 139.887 61.0771L171.17 32.7731C154.287 11.6692 128.466 0 96.4378 0C41.3194 0 0.849609 37.4904 0.849609 90.3743C0.849609 143.258 41.3194 180.749 96.4378 180.749Z" fill="url(#paint0_linear)"/>
<path d="M320.279 177.273H371.424L294.457 3.47593H246.043L169.324 177.273H219.477L233.132 143.506H306.623L320.279 177.273ZM247.532 107.257L269.878 51.6424L292.223 107.257H247.532Z" fill="url(#paint1_linear)"/>
<path d="M446.438 180.749C498.081 180.749 523.405 154.927 523.405 124.637C523.405 60.5806 424.838 80.443 424.838 53.877C424.838 45.1871 432.286 38.2353 452.894 38.2353C468.039 38.2353 484.425 42.7043 501.06 51.6424L516.205 15.1451C499.074 5.21391 475.735 0 453.142 0C401.499 0 376.175 25.3247 376.175 56.3598C376.175 120.913 474.991 100.802 474.991 128.361C474.991 136.803 467.046 142.513 446.687 142.513C426.576 142.513 404.727 135.561 389.334 125.382L373.195 161.631C389.582 173.052 417.886 180.749 446.438 180.749Z" fill="url(#paint2_linear)"/>
<path d="M594.776 139.286V107.506H671.992V70.7601H594.776V41.4629H682.42V3.47593H546.113V177.273H685.647V139.286H594.776Z" fill="url(#paint3_linear)"/>
<path d="M774.004 180.749C825.647 180.749 850.971 154.927 850.971 124.637C850.971 60.5806 752.404 80.443 752.404 53.877C752.404 45.1871 759.852 38.2353 780.46 38.2353C795.605 38.2353 811.991 42.7043 828.626 51.6424L843.771 15.1451C826.64 5.21391 803.301 0 780.708 0C729.065 0 703.741 25.3247 703.741 56.3598C703.741 120.913 802.557 100.802 802.557 128.361C802.557 136.803 794.612 142.513 774.253 142.513C754.142 142.513 732.293 135.561 716.9 125.382L700.761 161.631C717.148 173.052 745.452 180.749 774.004 180.749Z" fill="url(#paint4_linear)"/>
<defs>
<linearGradient id="paint0_linear" x1="422.502" y1="11.417" x2="422.03" y2="174.002" gradientUnits="userSpaceOnUse">
<stop stop-color="#253145"/>
<stop offset="1" stop-color="#121924" stop-opacity="0"/>
</linearGradient>
<linearGradient id="paint1_linear" x1="422.502" y1="11.417" x2="422.03" y2="174.002" gradientUnits="userSpaceOnUse">
<stop stop-color="#253145"/>
<stop offset="1" stop-color="#121924" stop-opacity="0"/>
</linearGradient>
<linearGradient id="paint2_linear" x1="422.502" y1="11.417" x2="422.03" y2="174.002" gradientUnits="userSpaceOnUse">
<stop stop-color="#253145"/>
<stop offset="1" stop-color="#121924" stop-opacity="0"/>
</linearGradient>
<linearGradient id="paint3_linear" x1="422.502" y1="11.417" x2="422.03" y2="174.002" gradientUnits="userSpaceOnUse">
<stop stop-color="#253145"/>
<stop offset="1" stop-color="#121924" stop-opacity="0"/>
</linearGradient>
<linearGradient id="paint4_linear" x1="422.502" y1="11.417" x2="422.03" y2="174.002" gradientUnits="userSpaceOnUse">
<stop stop-color="#253145"/>
<stop offset="1" stop-color="#121924" stop-opacity="0"/>
</linearGradient>
</defs>
</svg>
