<svg width="1364" height="841" viewBox="0 0 1364 841" fill="none" xmlns="http://www.w3.org/2000/svg">
<path opacity="0.3" d="M105.069 0.699655L187.882 48.4681L187.882 144.004L105.069 191.773L22.2553 144.004L22.2553 48.4681L105.069 0.699655ZM22.2553 352.538L105.069 304.769L187.882 352.538L187.882 448.074L105.069 495.842L22.2553 448.074L22.2553 352.538ZM192.8 152.508L275.614 200.277V295.813L192.8 343.581L109.987 295.813L109.987 200.277L192.8 152.508ZM109.987 504.346L192.8 456.578L275.614 504.346L275.614 599.882L192.8 647.651L109.987 599.882V504.346ZM280.952 0.699655L363.765 48.4681V144.004L280.952 191.773L198.139 144.004V48.4681L280.952 0.699655ZM16.9171 152.508L99.7303 200.277L99.7303 295.813L16.9171 343.581L-65.896 295.813L-65.896 200.277L16.9171 152.508ZM-65.896 504.346L16.9171 456.578L99.7303 504.346V599.882L16.9171 647.651L-65.896 599.882L-65.896 504.346ZM1197.48 635.619L1280.3 587.85L1363.11 635.619L1363.11 731.155L1280.3 778.923L1197.48 731.155L1197.48 635.619ZM1205.16 0.699499L1287.97 48.468V144.004L1205.16 191.772L1122.35 144.004V48.468L1205.16 0.699499ZM198.139 696.818L280.952 649.05L363.765 696.818V792.354L280.952 840.123L198.139 792.354V696.818Z" stroke="#FCC501" stroke-width="1.21187"/>
</svg>
