<svg width="267" height="519" viewBox="0 0 267 519" fill="none" xmlns="http://www.w3.org/2000/svg">
<path opacity="0.5" d="M-77.2596 38.8069L-10.9832 0.57722L55.2933 38.8069V115.266L-10.9832 153.495L-77.2596 115.266V38.8069ZM59.2455 122.099L125.522 160.329V236.787L59.2455 275.017L-7.03088 236.787V160.329L59.2455 122.099ZM-7.03088 403.734L59.2455 365.505L125.522 403.734V480.193L59.2455 518.423L-7.03088 480.193V403.734ZM129.81 0.57722L196.087 38.8069V115.266L129.81 153.495L63.5337 115.266V38.8069L129.81 0.57722ZM63.5337 282.212L129.81 243.983L196.087 282.212V358.671L129.81 396.901L63.5337 358.671V282.212ZM200.039 122.099L266.315 160.329V236.788L200.039 275.017L133.762 236.787V160.329L200.039 122.099ZM133.762 403.734L200.039 365.505L266.315 403.734V480.193L200.039 518.423L133.762 480.193V403.734Z" stroke="#FCC501"/>
</svg>
