<svg width="50" height="50" viewBox="0 0 50 50" fill="none" xmlns="http://www.w3.org/2000/svg">
<path opacity="0.2" d="M39.0625 29.8556L31.8756 37.0425C31.6848 37.2333 31.4478 37.3714 31.1878 37.4435C30.9278 37.5155 30.6535 37.5189 30.3917 37.4535L19.072 34.6236C18.8597 34.5705 18.6609 34.4734 18.4885 34.3386L7.8125 25.9904L14.1747 14.0212L24.1981 11.0991C24.5562 10.9947 24.9398 11.0218 25.2796 11.1756L32.0312 14.2306H27.991C27.7858 14.2306 27.5826 14.271 27.393 14.3495C27.2034 14.428 27.0312 14.5431 26.8861 14.6882L19.2427 22.3317C19.0844 22.49 18.9619 22.6804 18.8837 22.8901C18.8054 23.0999 18.7731 23.324 18.7889 23.5473C18.8048 23.7706 18.8685 23.9879 18.9756 24.1844C19.0828 24.381 19.2309 24.5522 19.41 24.6865L20.4688 25.4806C21.5506 26.292 22.8664 26.7306 24.2188 26.7306C25.5711 26.7306 26.8869 26.292 27.9688 25.4806L30.4688 23.6056L39.0625 29.8556Z" fill="#FCC501"/>
<path d="M47.0152 23.7859L42.1875 26.1997L35.9375 14.2306L40.8143 11.7922C41.1807 11.609 41.6044 11.577 41.9941 11.7031C42.3839 11.8292 42.7085 12.1033 42.8981 12.4665L47.7014 21.6651C47.7975 21.849 47.8559 22.0503 47.8734 22.257C47.8908 22.4638 47.8669 22.672 47.803 22.8694C47.7391 23.0668 47.6366 23.2495 47.5013 23.4069C47.366 23.5642 47.2008 23.6931 47.0152 23.7859V23.7859Z" stroke="#FCC501" stroke-width="2.875" stroke-linecap="round" stroke-linejoin="round"/>
<path d="M7.81249 25.9907L2.98482 23.5769C2.79923 23.4841 2.63397 23.3553 2.49871 23.1979C2.36344 23.0406 2.26087 22.8578 2.19699 22.6604C2.1331 22.463 2.10918 22.2548 2.12662 22.048C2.14406 21.8413 2.20251 21.6401 2.29855 21.4561L7.10186 12.2575C7.29147 11.8944 7.6161 11.6202 8.00584 11.4941C8.39559 11.368 8.81927 11.4 9.18567 11.5832L14.0625 14.0216L7.81249 25.9907Z" stroke="#FCC501" stroke-width="2.875" stroke-linecap="round" stroke-linejoin="round"/>
<path d="M42.1875 26.2001L39.0625 29.8559L31.8756 37.0429C31.6848 37.2336 31.4478 37.3718 31.1878 37.4438C30.9278 37.5158 30.6535 37.5193 30.3917 37.4538L19.072 34.6239C18.8597 34.5708 18.6609 34.4737 18.4885 34.3389L7.8125 25.9907" stroke="#FCC501" stroke-width="2.875" stroke-linecap="round" stroke-linejoin="round"/>
<path d="M39.0607 29.8557L30.4669 23.6057L27.9669 25.4807C26.8851 26.2921 25.5693 26.7307 24.2169 26.7307C22.8646 26.7307 21.5488 26.2921 20.4669 25.4807L19.4082 24.6867C19.2291 24.5523 19.081 24.3811 18.9738 24.1846C18.8667 23.988 18.803 23.7707 18.7871 23.5474C18.7713 23.3241 18.8036 23.1 18.8818 22.8903C18.9601 22.6806 19.0826 22.4901 19.2408 22.3318L26.8843 14.6884C27.0294 14.5433 27.2016 14.4282 27.3912 14.3497C27.5808 14.2711 27.784 14.2307 27.9891 14.2307H35.9357" stroke="#FCC501" stroke-width="2.875" stroke-linecap="round" stroke-linejoin="round"/>
<path d="M14.1758 14.0212L24.1992 11.0991C24.5573 10.9947 24.9409 11.0218 25.2807 11.1756L32.0323 14.2306" stroke="#FCC501" stroke-width="2.875" stroke-linecap="round" stroke-linejoin="round"/>
<path d="M21.875 41.5745L15.9884 40.1029C15.7495 40.0432 15.5281 39.9278 15.3423 39.7663L10.9375 35.9375" stroke="#FCC501" stroke-width="2.875" stroke-linecap="round" stroke-linejoin="round"/>
</svg>
