<svg width="844" height="168" viewBox="0 0 844 168" fill="none" xmlns="http://www.w3.org/2000/svg">
<path d="M152.275 3.95529V164H107.005V101.583H45.2737V164H0.00390625V3.95529H45.2737V64.0864H107.005V3.95529H152.275Z" fill="url(#paint0_linear)"/>
<path d="M327.561 129.019V164H199.068V3.95529H324.589V38.9365H243.881V65.9155H314.987V99.7535H243.881V129.019H327.561Z" fill="url(#paint1_linear)"/>
<path d="M367.544 3.95529H412.814V128.104H489.178V164H367.544V3.95529Z" fill="url(#paint2_linear)"/>
<path d="M521.953 3.95529H567.223V128.104H643.587V164H521.953V3.95529Z" fill="url(#paint3_linear)"/>
<path d="M754.615 167.201C737.696 167.201 722.453 163.619 708.888 156.455C695.474 149.291 684.881 139.384 677.107 126.732C669.486 114.081 665.675 99.8297 665.675 83.9776C665.675 68.1256 669.486 53.874 677.107 41.2229C684.881 28.5717 695.474 18.6642 708.888 11.5003C722.453 4.33635 737.696 0.754395 754.615 0.754395C771.534 0.754395 786.7 4.33635 800.113 11.5003C813.679 18.6642 824.272 28.5717 831.893 41.2229C839.667 53.874 843.554 68.1256 843.554 83.9776C843.554 99.8297 839.667 114.081 831.893 126.732C824.272 139.384 813.679 149.291 800.113 156.455C786.7 163.619 771.534 167.201 754.615 167.201ZM754.615 129.705C762.693 129.705 770.009 127.799 776.564 123.989C783.118 120.178 788.3 114.843 792.111 107.984C795.921 100.973 797.827 92.9706 797.827 83.9776C797.827 74.9847 795.921 67.0586 792.111 60.1996C788.3 53.1881 783.118 47.7771 776.564 43.9665C770.009 40.1559 762.693 38.2506 754.615 38.2506C746.536 38.2506 739.22 40.1559 732.666 43.9665C726.111 47.7771 720.929 53.1881 717.118 60.1996C713.308 67.0586 711.403 74.9847 711.403 83.9776C711.403 92.9706 713.308 100.973 717.118 107.984C720.929 114.843 726.111 120.178 732.666 123.989C739.22 127.799 746.536 129.705 754.615 129.705Z" fill="url(#paint4_linear)"/>
<defs>
<linearGradient id="paint0_linear" x1="418.397" y1="11.268" x2="417.994" y2="160.989" gradientUnits="userSpaceOnUse">
<stop stop-color="#253145"/>
<stop offset="1" stop-color="#121924" stop-opacity="0"/>
</linearGradient>
<linearGradient id="paint1_linear" x1="418.397" y1="11.268" x2="417.994" y2="160.989" gradientUnits="userSpaceOnUse">
<stop stop-color="#253145"/>
<stop offset="1" stop-color="#121924" stop-opacity="0"/>
</linearGradient>
<linearGradient id="paint2_linear" x1="418.397" y1="11.268" x2="417.994" y2="160.989" gradientUnits="userSpaceOnUse">
<stop stop-color="#253145"/>
<stop offset="1" stop-color="#121924" stop-opacity="0"/>
</linearGradient>
<linearGradient id="paint3_linear" x1="418.397" y1="11.268" x2="417.994" y2="160.989" gradientUnits="userSpaceOnUse">
<stop stop-color="#253145"/>
<stop offset="1" stop-color="#121924" stop-opacity="0"/>
</linearGradient>
<linearGradient id="paint4_linear" x1="418.397" y1="11.268" x2="417.994" y2="160.989" gradientUnits="userSpaceOnUse">
<stop stop-color="#253145"/>
<stop offset="1" stop-color="#121924" stop-opacity="0"/>
</linearGradient>
</defs>
</svg>
