<svg width="50" height="50" viewBox="0 0 50 50" fill="none" xmlns="http://www.w3.org/2000/svg">
<path opacity="0.2" d="M25 25.0001L13.125 16.0939C12.9309 15.9484 12.7734 15.7596 12.665 15.5427C12.5565 15.3257 12.5 15.0865 12.5 14.8439V12.4993H37.5V14.7738C37.5 15.0154 37.444 15.2537 37.3364 15.47C37.2287 15.6862 37.0724 15.8746 36.8797 16.0203L25 25.0001Z" fill="#FCC501"/>
<path d="M12.5 12.4993H37.5" stroke="#FCC501" stroke-width="3.75" stroke-linecap="round" stroke-linejoin="round"/>
<path d="M25 25L13.125 16.0938C12.9309 15.9482 12.7734 15.7595 12.665 15.5425C12.5565 15.3256 12.5 15.0863 12.5 14.8438V7.8125C12.5 7.3981 12.6646 7.00067 12.9576 6.70765C13.2507 6.41462 13.6481 6.25 14.0625 6.25H35.9375C36.3519 6.25 36.7493 6.41462 37.0424 6.70765C37.3354 7.00067 37.5 7.3981 37.5 7.8125V14.7737C37.5 15.0152 37.444 15.2535 37.3364 15.4698C37.2287 15.6861 37.0724 15.8745 36.8797 16.0201L25 25Z" stroke="#FCC501" stroke-width="3.75" stroke-linecap="round" stroke-linejoin="round"/>
<path d="M25 25L13.125 33.9063C12.9309 34.0518 12.7734 34.2405 12.665 34.4575C12.5565 34.6744 12.5 34.9137 12.5 35.1562V42.1875C12.5 42.6019 12.6646 42.9993 12.9576 43.2924C13.2507 43.5854 13.6481 43.75 14.0625 43.75H35.9375C36.3519 43.75 36.7493 43.5854 37.0424 43.2924C37.3354 42.9993 37.5 42.6019 37.5 42.1875V35.2263C37.5 34.9848 37.444 34.7465 37.3364 34.5302C37.2287 34.3139 37.0724 34.1255 36.8797 33.9799L25 25Z" stroke="#FCC501" stroke-width="3.75" stroke-linecap="round" stroke-linejoin="round"/>
</svg>
