<svg width="50" height="50" viewBox="0 0 50 50" fill="none" xmlns="http://www.w3.org/2000/svg">
<path opacity="0.2" d="M15.3718 32.6195C13.5139 31.1684 12.0091 29.3151 10.9704 27.1987C9.93182 25.0824 9.38642 22.7582 9.37524 20.4008C9.32844 11.9316 16.1562 4.89132 24.6232 4.69203C27.9042 4.61303 31.1268 5.56911 33.8338 7.42467C36.5409 9.28022 38.5949 11.941 39.7047 15.0297C40.8144 18.1183 40.9234 21.4779 40.0163 24.632C39.1091 27.7861 37.2319 30.5745 34.6509 32.6017C34.0824 33.0421 33.6215 33.6061 33.303 34.2508C32.9845 34.8956 32.8168 35.6044 32.8125 36.3235L32.8125 37.5001C32.8125 37.9145 32.6479 38.3119 32.3549 38.605C32.0618 38.898 31.6644 39.0626 31.25 39.0626H18.75C18.3356 39.0626 17.9381 38.898 17.6451 38.605C17.3521 38.3119 17.1875 37.9145 17.1875 37.5001L17.1874 36.3222C17.1857 35.6077 17.0213 34.903 16.7067 34.2614C16.3921 33.6199 15.9356 33.0584 15.3718 32.6195Z" fill="#FCC501"/>
<path d="M17.1875 45.3125H32.8125" stroke="#FCC501" stroke-width="2.875" stroke-linecap="round" stroke-linejoin="round"/>
<path d="M25 39.0625V28.125" stroke="#FCC501" stroke-width="2.875" stroke-linecap="round" stroke-linejoin="round"/>
<path d="M18.75 21.875L25 28.125L31.25 21.875" stroke="#FCC501" stroke-width="2.875" stroke-linecap="round" stroke-linejoin="round"/>
<path d="M15.3718 32.6195C13.5139 31.1684 12.0091 29.3151 10.9704 27.1987C9.93182 25.0824 9.38642 22.7582 9.37524 20.4008C9.32844 11.9316 16.1562 4.89132 24.6232 4.69203C27.9042 4.61303 31.1268 5.56911 33.8338 7.42467C36.5409 9.28022 38.5949 11.941 39.7047 15.0297C40.8144 18.1183 40.9234 21.4779 40.0163 24.632C39.1092 27.7861 37.2319 30.5745 34.6509 32.6017C34.0824 33.0421 33.6215 33.6061 33.303 34.2508C32.9845 34.8956 32.8168 35.6044 32.8125 36.3235L32.8125 37.5001C32.8125 37.9145 32.6479 38.3119 32.3549 38.605C32.0618 38.898 31.6644 39.0626 31.25 39.0626H18.75C18.3356 39.0626 17.9381 38.898 17.6451 38.605C17.3521 38.3119 17.1875 37.9145 17.1875 37.5001L17.1874 36.3222C17.1857 35.6077 17.0213 34.903 16.7067 34.2614C16.3921 33.6199 15.9356 33.0584 15.3718 32.6195V32.6195Z" stroke="#FCC501" stroke-width="2.875" stroke-linecap="round" stroke-linejoin="round"/>
</svg>
