<svg width="50" height="50" viewBox="0 0 50 50" fill="none" xmlns="http://www.w3.org/2000/svg">
<path opacity="0.2" d="M25 31.25C28.4518 31.25 31.25 28.4518 31.25 25C31.25 21.5482 28.4518 18.75 25 18.75C21.5482 18.75 18.75 21.5482 18.75 25C18.75 28.4518 21.5482 31.25 25 31.25Z" fill="#FCC501"/>
<path opacity="0.2" d="M45.3125 12.5H34.375L46.875 23.4375V14.0625C46.875 13.8573 46.8346 13.6541 46.7561 13.4646C46.6775 13.275 46.5625 13.1027 46.4174 12.9576C46.2723 12.8125 46.1 12.6975 45.9104 12.6189C45.7209 12.5404 45.5177 12.5 45.3125 12.5Z" fill="#FCC501"/>
<path opacity="0.2" d="M45.3125 37.5C45.5177 37.5 45.7209 37.4596 45.9104 37.3811C46.1 37.3025 46.2723 37.1875 46.4174 37.0424C46.5625 36.8973 46.6775 36.725 46.7561 36.5354C46.8346 36.3459 46.875 36.1427 46.875 35.9375V26.5625L34.375 37.5H45.3125Z" fill="#FCC501"/>
<path opacity="0.2" d="M3.125 14.0625V23.4375L15.625 12.5H4.6875C4.48231 12.5 4.27913 12.5404 4.08956 12.6189C3.89998 12.6975 3.72773 12.8125 3.58264 12.9576C3.43755 13.1027 3.32246 13.275 3.24393 13.4646C3.16541 13.6541 3.125 13.8573 3.125 14.0625Z" fill="#FCC501"/>
<path opacity="0.2" d="M3.125 35.9375C3.125 36.1427 3.16541 36.3459 3.24393 36.5354C3.32246 36.725 3.43755 36.8973 3.58264 37.0424C3.72773 37.1875 3.89998 37.3025 4.08956 37.3811C4.27913 37.4596 4.48231 37.5 4.6875 37.5H15.625L3.125 26.5625V35.9375Z" fill="#FCC501"/>
<path d="M45.3125 12.5H4.6875C3.82456 12.5 3.125 13.1996 3.125 14.0625V35.9375C3.125 36.8004 3.82456 37.5 4.6875 37.5H45.3125C46.1754 37.5 46.875 36.8004 46.875 35.9375V14.0625C46.875 13.1996 46.1754 12.5 45.3125 12.5Z" stroke="#FCC501" stroke-width="3.07377" stroke-linecap="round" stroke-linejoin="round"/>
<path d="M25 31.25C28.4518 31.25 31.25 28.4518 31.25 25C31.25 21.5482 28.4518 18.75 25 18.75C21.5482 18.75 18.75 21.5482 18.75 25C18.75 28.4518 21.5482 31.25 25 31.25Z" stroke="#FCC501" stroke-width="3.07377" stroke-linecap="round" stroke-linejoin="round"/>
<path d="M34.375 12.5L46.875 23.4375" stroke="#FCC501" stroke-width="3.07377" stroke-linecap="round" stroke-linejoin="round"/>
<path d="M34.375 37.5L46.875 26.5625" stroke="#FCC501" stroke-width="3.07377" stroke-linecap="round" stroke-linejoin="round"/>
<path d="M15.625 12.5L3.125 23.4375" stroke="#FCC501" stroke-width="3.07377" stroke-linecap="round" stroke-linejoin="round"/>
<path d="M15.625 37.5L3.125 26.5625" stroke="#FCC501" stroke-width="3.07377" stroke-linecap="round" stroke-linejoin="round"/>
</svg>
