<svg width="62" height="76" viewBox="0 0 62 76" fill="none" xmlns="http://www.w3.org/2000/svg">
<g filter="url(#filter0_d)">
<path d="M33.1677 39.1086C33.1743 35.1091 41.372 31.4951 41.3829 24.8934C41.3935 18.4364 35.6145 16.3161 29.5429 16.3161C25.9771 16.3161 22.747 17.2799 20.1909 18.5809L20.1782 26.2909C22.2523 25.0862 25.2416 24.0261 28.0365 24.0261C30.5422 24.0261 32.4685 24.7489 32.4647 27.0619C32.4602 29.8085 25.4676 33.1334 25.4578 39.1086H33.1677ZM34.2635 46.7222C34.2689 43.4455 32.0065 41.9999 29.3562 41.9999C26.7541 41.9999 24.4387 43.4455 24.4333 46.7222C24.4279 50.0471 26.7385 51.4927 29.3406 51.4927C31.9909 51.4927 34.258 50.0471 34.2635 46.7222Z" fill="#FCC501"/>
</g>
<defs>
<filter id="filter0_d" x="0.177734" y="0.316132" width="61.2047" height="75.1766" filterUnits="userSpaceOnUse" color-interpolation-filters="sRGB">
<feFlood flood-opacity="0" result="BackgroundImageFix"/>
<feColorMatrix in="SourceAlpha" type="matrix" values="0 0 0 0 0 0 0 0 0 0 0 0 0 0 0 0 0 0 127 0"/>
<feOffset dy="4"/>
<feGaussianBlur stdDeviation="10"/>
<feColorMatrix type="matrix" values="0 0 0 0 0.988235 0 0 0 0 0.772549 0 0 0 0 0.00392157 0 0 0 0.5 0"/>
<feBlend mode="normal" in2="BackgroundImageFix" result="effect1_dropShadow"/>
<feBlend mode="normal" in="SourceGraphic" in2="effect1_dropShadow" result="shape"/>
</filter>
</defs>
</svg>
