<svg width="1328" height="160" viewBox="0 0 1328 160" fill="none" xmlns="http://www.w3.org/2000/svg">
<path d="M64.7187 159.045C52.3957 159.045 40.4351 157.522 28.8369 154.478C17.2388 151.433 7.81525 147.374 0.566406 142.3L14.7017 110.55C21.5156 115.044 29.4168 118.668 38.4054 121.423C47.394 124.178 56.2375 125.555 64.9362 125.555C81.4635 125.555 89.7272 121.423 89.7272 113.159C89.7272 108.81 87.3351 105.621 82.5509 103.591C77.9116 101.416 70.3728 99.1691 59.9345 96.8494C48.4813 94.3848 38.9128 91.7753 31.229 89.0207C23.5452 86.1212 16.9488 81.5544 11.4397 75.3204C5.93055 69.0864 3.17599 60.6777 3.17599 50.0944C3.17599 40.8159 5.71309 32.4797 10.7873 25.0859C15.8615 17.5471 23.4003 11.603 33.4037 7.25371C43.5521 2.90439 55.9476 0.729736 70.5903 0.729736C80.5937 0.729736 90.4521 1.88955 100.166 4.20919C109.879 6.38384 118.433 9.64582 125.826 13.9951L112.561 45.9625C98.0634 38.1338 84.0006 34.2194 70.3728 34.2194C61.8192 34.2194 55.5852 35.5242 51.6708 38.1338C47.7564 40.5984 45.7992 43.8604 45.7992 47.9197C45.7992 51.9791 48.1188 55.0236 52.7581 57.0533C57.3974 59.083 64.8637 61.1851 75.157 63.3598C86.7552 65.8244 96.3237 68.5065 103.862 71.406C111.546 74.1606 118.143 78.6548 123.652 84.8888C129.306 90.9779 132.133 99.314 132.133 109.897C132.133 119.031 129.596 127.295 124.522 134.688C119.447 142.082 111.836 148.026 101.688 152.521C91.5394 156.87 79.2164 159.045 64.7187 159.045Z" fill="url(#paint0_linear)"/>
<path d="M228.788 159.045C212.695 159.045 198.198 155.638 185.295 148.824C172.537 142.01 162.461 132.586 155.067 120.553C147.818 108.52 144.194 94.9648 144.194 79.8871C144.194 64.8095 147.818 51.2542 155.067 39.2211C162.461 27.188 172.537 17.7645 185.295 10.9506C198.198 4.13669 212.695 0.729736 228.788 0.729736C244.88 0.729736 259.306 4.13669 272.063 10.9506C284.966 17.7645 295.042 27.188 302.291 39.2211C309.685 51.2542 313.382 64.8095 313.382 79.8871C313.382 94.9648 309.685 108.52 302.291 120.553C295.042 132.586 284.966 142.01 272.063 148.824C259.306 155.638 244.88 159.045 228.788 159.045ZM228.788 123.38C236.472 123.38 243.431 121.568 249.665 117.944C255.899 114.319 260.828 109.245 264.452 102.721C268.077 96.0521 269.889 88.4408 269.889 79.8871C269.889 71.3335 268.077 63.7947 264.452 57.2707C260.828 50.6018 255.899 45.4551 249.665 41.8307C243.431 38.2063 236.472 36.3941 228.788 36.3941C221.104 36.3941 214.145 38.2063 207.911 41.8307C201.677 45.4551 196.748 50.6018 193.124 57.2707C189.499 63.7947 187.687 71.3335 187.687 79.8871C187.687 88.4408 189.499 96.0521 193.124 102.721C196.748 109.245 201.677 114.319 207.911 117.944C214.145 121.568 221.104 123.38 228.788 123.38Z" fill="url(#paint1_linear)"/>
<path d="M335.934 3.77425H378.992V121.858H451.625V156H335.934V3.77425Z" fill="url(#paint2_linear)"/>
<path d="M537.419 159.045C514.802 159.045 497.188 152.883 484.575 140.56C472.107 128.237 465.873 110.767 465.873 88.1508V3.77425H508.931V86.846C508.931 111.202 518.572 123.38 537.854 123.38C556.991 123.38 566.559 111.202 566.559 86.846V3.77425H608.965V88.1508C608.965 110.767 602.658 128.237 590.045 140.56C577.577 152.883 560.035 159.045 537.419 159.045Z" fill="url(#paint3_linear)"/>
<path d="M668.201 37.9163H621.445V3.77425H757.796V37.9163H711.259V156H668.201V37.9163Z" fill="url(#paint4_linear)"/>
<path d="M773.838 3.77425H816.896V156H773.838V3.77425Z" fill="url(#paint5_linear)"/>
<path d="M924.295 159.045C908.202 159.045 893.705 155.638 880.802 148.824C868.044 142.01 857.968 132.586 850.574 120.553C843.325 108.52 839.701 94.9648 839.701 79.8871C839.701 64.8095 843.325 51.2542 850.574 39.2211C857.968 27.188 868.044 17.7645 880.802 10.9506C893.705 4.13669 908.202 0.729736 924.295 0.729736C940.387 0.729736 954.812 4.13669 967.57 10.9506C980.473 17.7645 990.549 27.188 997.798 39.2211C1005.19 51.2542 1008.89 64.8095 1008.89 79.8871C1008.89 94.9648 1005.19 108.52 997.798 120.553C990.549 132.586 980.473 142.01 967.57 148.824C954.812 155.638 940.387 159.045 924.295 159.045ZM924.295 123.38C931.979 123.38 938.938 121.568 945.172 117.944C951.406 114.319 956.335 109.245 959.959 102.721C963.584 96.0521 965.396 88.4408 965.396 79.8871C965.396 71.3335 963.584 63.7947 959.959 57.2707C956.335 50.6018 951.406 45.4551 945.172 41.8307C938.938 38.2063 931.979 36.3941 924.295 36.3941C916.611 36.3941 909.652 38.2063 903.418 41.8307C897.184 45.4551 892.255 50.6018 888.63 57.2707C885.006 63.7947 883.194 71.3335 883.194 79.8871C883.194 88.4408 885.006 96.0521 888.63 102.721C892.255 109.245 897.184 114.319 903.418 117.944C909.652 121.568 916.611 123.38 924.295 123.38Z" fill="url(#paint6_linear)"/>
<path d="M1176.27 3.77425V156H1140.83L1073.63 74.8854V156H1031.44V3.77425H1066.89L1134.08 84.8888V3.77425H1176.27Z" fill="url(#paint7_linear)"/>
<path d="M1260.14 159.045C1247.82 159.045 1235.86 157.522 1224.26 154.478C1212.66 151.433 1203.24 147.374 1195.99 142.3L1210.12 110.55C1216.94 115.044 1224.84 118.668 1233.83 121.423C1242.82 124.178 1251.66 125.555 1260.36 125.555C1276.89 125.555 1285.15 121.423 1285.15 113.159C1285.15 108.81 1282.76 105.621 1277.97 103.591C1273.33 101.416 1265.8 99.1691 1255.36 96.8494C1243.9 94.3848 1234.34 91.7753 1226.65 89.0207C1218.97 86.1212 1212.37 81.5544 1206.86 75.3204C1201.35 69.0864 1198.6 60.6777 1198.6 50.0944C1198.6 40.8159 1201.14 32.4797 1206.21 25.0859C1211.28 17.5471 1218.82 11.603 1228.83 7.25371C1238.97 2.90439 1251.37 0.729736 1266.01 0.729736C1276.02 0.729736 1285.87 1.88955 1295.59 4.20919C1305.3 6.38384 1313.86 9.64582 1321.25 13.9951L1307.98 45.9625C1293.49 38.1338 1279.42 34.2194 1265.8 34.2194C1257.24 34.2194 1251.01 35.5242 1247.09 38.1338C1243.18 40.5984 1241.22 43.8604 1241.22 47.9197C1241.22 51.9791 1243.54 55.0236 1248.18 57.0533C1252.82 59.083 1260.29 61.1851 1270.58 63.3598C1282.18 65.8244 1291.75 68.5065 1299.29 71.406C1306.97 74.1606 1313.57 78.6548 1319.07 84.8888C1324.73 90.9779 1327.56 99.314 1327.56 109.897C1327.56 119.031 1325.02 127.295 1319.94 134.688C1314.87 142.082 1307.26 148.026 1297.11 152.521C1286.96 156.87 1274.64 159.045 1260.14 159.045Z" fill="url(#paint8_linear)"/>
<defs>
<linearGradient id="paint0_linear" x1="664.5" y1="-22" x2="664.826" y2="147.617" gradientUnits="userSpaceOnUse">
<stop stop-color="white" stop-opacity="0.1"/>
<stop offset="1" stop-color="white" stop-opacity="0"/>
</linearGradient>
<linearGradient id="paint1_linear" x1="664.5" y1="-22" x2="664.826" y2="147.617" gradientUnits="userSpaceOnUse">
<stop stop-color="white" stop-opacity="0.1"/>
<stop offset="1" stop-color="white" stop-opacity="0"/>
</linearGradient>
<linearGradient id="paint2_linear" x1="664.5" y1="-22" x2="664.826" y2="147.617" gradientUnits="userSpaceOnUse">
<stop stop-color="white" stop-opacity="0.1"/>
<stop offset="1" stop-color="white" stop-opacity="0"/>
</linearGradient>
<linearGradient id="paint3_linear" x1="664.5" y1="-22" x2="664.826" y2="147.617" gradientUnits="userSpaceOnUse">
<stop stop-color="white" stop-opacity="0.1"/>
<stop offset="1" stop-color="white" stop-opacity="0"/>
</linearGradient>
<linearGradient id="paint4_linear" x1="664.5" y1="-22" x2="664.826" y2="147.617" gradientUnits="userSpaceOnUse">
<stop stop-color="white" stop-opacity="0.1"/>
<stop offset="1" stop-color="white" stop-opacity="0"/>
</linearGradient>
<linearGradient id="paint5_linear" x1="664.5" y1="-22" x2="664.826" y2="147.617" gradientUnits="userSpaceOnUse">
<stop stop-color="white" stop-opacity="0.1"/>
<stop offset="1" stop-color="white" stop-opacity="0"/>
</linearGradient>
<linearGradient id="paint6_linear" x1="664.5" y1="-22" x2="664.826" y2="147.617" gradientUnits="userSpaceOnUse">
<stop stop-color="white" stop-opacity="0.1"/>
<stop offset="1" stop-color="white" stop-opacity="0"/>
</linearGradient>
<linearGradient id="paint7_linear" x1="664.5" y1="-22" x2="664.826" y2="147.617" gradientUnits="userSpaceOnUse">
<stop stop-color="white" stop-opacity="0.1"/>
<stop offset="1" stop-color="white" stop-opacity="0"/>
</linearGradient>
<linearGradient id="paint8_linear" x1="664.5" y1="-22" x2="664.826" y2="147.617" gradientUnits="userSpaceOnUse">
<stop stop-color="white" stop-opacity="0.1"/>
<stop offset="1" stop-color="white" stop-opacity="0"/>
</linearGradient>
</defs>
</svg>
