<svg width="262" height="382" viewBox="0 0 262 382" fill="none" xmlns="http://www.w3.org/2000/svg">
<path d="M398.913 344.626L335.038 381.281L271.164 344.626L271.164 271.32L335.038 234.665L398.913 271.32V344.626ZM398.913 110.537L335.038 147.192L271.164 110.537V37.2317L335.038 0.576508L398.913 37.2317V110.537ZM267.738 264.236L203.863 227.581V154.276L267.738 117.621L331.612 154.276L331.612 227.581L267.738 264.236ZM200.437 381.281L136.562 344.626V271.32L200.437 234.665L264.311 271.32V344.626L200.437 381.281ZM200.437 147.192L136.563 110.537L136.563 37.2317L200.437 0.576496L264.311 37.2317V110.537L200.437 147.192ZM195.548 227.581L131.673 264.236L67.7988 227.581L67.7988 154.276L131.673 117.621L195.548 154.276V227.581ZM64.3744 381.281L0.5 344.625L0.500006 271.32L64.3744 234.665L128.249 271.32V344.626L64.3744 381.281ZM64.3744 147.192L0.50002 110.537L0.500027 37.2317L64.3744 0.576479L128.249 37.2317L128.249 110.537L64.3744 147.192Z" stroke="url(#paint0_linear)"/>
<defs>
<linearGradient id="paint0_linear" x1="331" y1="146.5" x2="75" y2="146.5" gradientUnits="userSpaceOnUse">
<stop stop-color="#FF6B00"/>
<stop offset="1" stop-color="#FF6B00" stop-opacity="0"/>
</linearGradient>
</defs>
</svg>
