<svg width="42" height="42" viewBox="0 0 42 42" fill="none" xmlns="http://www.w3.org/2000/svg">
<path d="M32.1331 3.2398L23.9375 11.4355L25.0423 16.9598L30.5666 18.0646L38.7623 9.86893L38.7631 9.86859C39.7775 12.2632 40.0201 14.9145 39.4571 17.4534C38.8942 19.9923 37.5536 22.2926 35.6221 24.034C33.6906 25.7753 31.2642 26.8712 28.6808 27.169C26.0973 27.4668 23.4852 26.9517 21.2082 25.6955L21.2084 25.6951L10.2541 38.3771C9.37483 39.2554 8.18281 39.7485 6.94007 39.7482C5.69733 39.7478 4.50559 39.254 3.62684 38.3752C2.74809 37.4965 2.25426 36.3047 2.25391 35.062C2.25355 33.8193 2.74671 32.6272 3.62496 31.748L16.3069 20.7938L16.3066 20.7939C15.0503 18.5169 14.5353 15.9048 14.8331 13.3213C15.1309 10.7378 16.2267 8.31146 17.9681 6.37995C19.7095 4.44844 22.0097 3.1079 24.5487 2.54494C27.0876 1.98197 29.7389 2.22458 32.1335 3.23901L32.1331 3.2398Z" stroke="#FCC501" stroke-width="3.125" stroke-linecap="round" stroke-linejoin="round"/>
</svg>
