<svg width="18" height="18" viewBox="0 0 18 18" fill="none" xmlns="http://www.w3.org/2000/svg">
<path fill-rule="evenodd" clip-rule="evenodd" d="M8.71057 0C3.97057 0 0.140625 3.83597 0.140625 8.56897C0.140625 13.301 3.97057 17.137 8.71057 17.137C13.4406 17.137 17.2706 13.301 17.2706 8.56897C17.2706 3.83597 13.4406 0 8.71057 0ZM13.5507 4.76202C13.5407 4.70002 13.5206 4.64102 13.4806 4.59302C13.4406 4.54502 13.3906 4.50901 13.3306 4.48901C13.2706 4.46901 13.2106 4.46598 13.1506 4.47998L13.0706 4.49902L3.40063 6.84003C3.34063 6.85503 3.2806 6.88603 3.2406 6.93103C3.1906 6.97603 3.16062 7.03102 3.14062 7.09302C3.13063 7.15402 3.14064 7.21902 3.16064 7.27802C3.18064 7.33702 3.21062 7.389 3.26062 7.427L6.04065 9.58197L12.5906 5.31201L7.04065 10.833L8.56067 14.002C8.59067 14.045 8.62064 14.083 8.66064 14.113C8.70064 14.143 8.74065 14.163 8.79065 14.173C8.84065 14.183 8.89055 14.182 8.94055 14.17C8.98055 14.159 9.03056 14.136 9.07056 14.105C9.11056 14.074 9.14064 14.034 9.16064 13.988L13.4906 5.01398L13.5206 4.94299C13.5506 4.88699 13.5607 4.82402 13.5507 4.76202Z" fill="white"/>
</svg>
