<svg width="18" height="18" viewBox="0 0 18 18" fill="none" xmlns="http://www.w3.org/2000/svg">
<path d="M8.83948 0C4.10948 0 0.269531 3.83597 0.269531 8.56897C0.269531 13.301 4.10948 17.137 8.83948 17.137C13.5695 17.137 17.4095 13.301 17.4095 8.56897C17.4095 3.83597 13.5695 0 8.83948 0ZM5.62952 14.37H3.21948V6.62H5.62952V14.37ZM4.42957 5.56C3.65957 5.56 3.02954 4.93402 3.02954 4.16302C3.02954 3.39302 3.65957 2.76703 4.42957 2.76703C5.19957 2.76703 5.81946 3.39302 5.81946 4.16302C5.81946 4.93402 5.19957 5.56 4.42957 5.56ZM14.6495 14.37H12.2495V10.601C12.2495 9.70201 12.2295 8.54602 10.9895 8.54602C9.7395 8.54602 9.54956 9.52501 9.54956 10.536V14.37H7.13953V6.62H9.44946V7.67902H9.47949C9.80949 7.06902 10.5895 6.427 11.7595 6.427C14.1995 6.427 14.6495 8.03202 14.6495 10.119V14.37Z" fill="white"/>
</svg>
