<svg width="50" height="50" viewBox="0 0 50 50" fill="none" xmlns="http://www.w3.org/2000/svg">
<path opacity="0.2" d="M36.1331 7.2398L27.9375 15.4355L29.0423 20.9598L34.5666 22.0646L42.7623 13.8689L42.7631 13.8686C43.7775 16.2632 44.0201 18.9145 43.4571 21.4534C42.8942 23.9923 41.5536 26.2926 39.6221 28.034C37.6906 29.7753 35.2642 30.8712 32.6808 31.169C30.0973 31.4668 27.4852 30.9517 25.2082 29.6955L25.2084 29.6951L14.2541 42.3771C13.3748 43.2554 12.1828 43.7485 10.9401 43.7482C9.69733 43.7478 8.50559 43.254 7.62684 42.3752C6.74809 41.4965 6.25426 40.3047 6.25391 39.062C6.25355 37.8193 6.74671 36.6272 7.62496 35.748L20.3069 24.7938L20.3066 24.7939C19.0503 22.5169 18.5353 19.9048 18.8331 17.3213C19.1309 14.7378 20.2267 12.3115 21.9681 10.38C23.7095 8.44844 26.0097 7.1079 28.5487 6.54494C31.0876 5.98197 33.7389 6.22458 36.1335 7.23901L36.1331 7.2398Z" fill="#FCC501"/>
<path d="M36.1331 7.2398L27.9375 15.4355L29.0423 20.9598L34.5666 22.0646L42.7623 13.8689L42.7631 13.8686C43.7775 16.2632 44.0201 18.9145 43.4571 21.4534C42.8942 23.9923 41.5536 26.2926 39.6221 28.034C37.6906 29.7753 35.2642 30.8712 32.6808 31.169C30.0973 31.4668 27.4852 30.9517 25.2082 29.6955L25.2084 29.6951L14.2541 42.3771C13.3748 43.2554 12.1828 43.7485 10.9401 43.7482C9.69733 43.7478 8.50559 43.254 7.62684 42.3752C6.74809 41.4965 6.25426 40.3047 6.25391 39.062C6.25355 37.8193 6.74671 36.6272 7.62496 35.748L20.3069 24.7938L20.3066 24.7939C19.0503 22.5169 18.5353 19.9048 18.8331 17.3213C19.1309 14.7378 20.2267 12.3115 21.9681 10.38C23.7095 8.44844 26.0097 7.1079 28.5487 6.54494C31.0876 5.98197 33.7389 6.22458 36.1335 7.23901L36.1331 7.2398Z" stroke="#FCC501" stroke-width="3.125" stroke-linecap="round" stroke-linejoin="round"/>
</svg>
