<svg width="265" height="382" viewBox="0 0 265 382" fill="none" xmlns="http://www.w3.org/2000/svg">
<path d="M-134.503 37.2318L-70.6283 0.576661L-6.75388 37.2319L-6.75391 110.537L-70.6283 147.192L-134.503 110.537L-134.503 37.2318ZM-134.503 271.321L-70.6283 234.665L-6.75393 271.321L-6.75393 344.626L-70.6283 381.281L-134.503 344.626L-134.503 271.321ZM-3.32749 117.621L60.5469 154.276L60.5469 227.581L-3.32753 264.237L-67.2019 227.581L-67.2019 154.276L-3.32749 117.621ZM63.9733 0.576704L127.848 37.2319L127.848 110.537L63.9733 147.192L0.0989007 110.537L0.0989071 37.2319L63.9733 0.576704ZM63.9733 234.665L127.848 271.321L127.848 344.626L63.9732 381.281L0.0988497 344.626L0.0988561 271.321L63.9733 234.665ZM68.8626 154.276L132.737 117.621L196.611 154.276L196.611 227.581L132.737 264.237L68.8625 227.581L68.8626 154.276ZM200.036 0.576716L263.91 37.2319L263.91 110.537L200.036 147.192L136.161 110.537L136.161 37.2319L200.036 0.576716ZM200.036 234.665L263.91 271.321L263.91 344.626L200.036 381.281L136.161 344.626L136.161 271.321L200.036 234.665Z" stroke="url(#paint0_linear)"/>
<defs>
<linearGradient id="paint0_linear" x1="-66.5898" y1="235.357" x2="189.41" y2="235.357" gradientUnits="userSpaceOnUse">
<stop stop-color="#FF6B00"/>
<stop offset="1" stop-color="#FF6B00" stop-opacity="0"/>
</linearGradient>
</defs>
</svg>
